<?xml version="1.0" encoding="iso-8859-1"?>
<!-- Generator: Adobe Illustrator 19.0.0, SVG Export Plug-In . SVG Version: 6.00 Build 0)  -->
<svg version="1.1" id="Capa_1" xmlns="http://www.w3.org/2000/svg" xmlns:xlink="http://www.w3.org/1999/xlink" x="0px" y="0px"
	 viewBox="0 0 512 512" style="enable-background:new 0 0 512 512;" xml:space="preserve">
<g>
	<g>
		<path d="M306.614,205.386L293.28,192.05c-20.645-20.645-48.093-32.015-77.289-32.015c-29.195,0-56.643,11.37-77.287,32.015
			L32.015,298.739C11.37,319.384,0,346.832,0,376.027s11.37,56.644,32.015,77.289l26.672,26.669
			C79.33,500.63,106.778,512,135.974,512s56.644-11.37,77.287-32.014l40.01-40.006c5.857-5.858,5.858-15.355,0.001-21.214
			c-5.86-5.857-15.357-5.856-21.214,0l-40.01,40.007C177.069,473.751,157.155,482,135.974,482c-21.183,0-41.096-8.249-56.074-23.228
			l-26.672-26.669C38.249,417.124,30,397.209,30,376.027s8.249-41.097,23.228-56.075l106.69-106.689
			c14.978-14.979,34.893-23.227,56.074-23.227c21.183,0,41.098,8.249,56.075,23.227l13.332,13.334
			c5.857,5.859,15.355,5.859,21.213,0.002C312.47,220.742,312.471,211.244,306.614,205.386z"/>
	</g>
</g>
<g>
	<g>
		<path d="M479.986,58.688l-26.671-26.673C432.67,11.369,405.221,0,376.025,0c-29.196,0-56.644,11.37-77.286,32.015l-40.01,40.01
			c-5.858,5.857-5.858,15.355,0,21.213c5.857,5.857,15.355,5.857,21.213,0l40.011-40.01C334.93,38.249,354.843,30,376.025,30
			c21.183,0,41.098,8.249,56.076,23.228L458.772,79.9C473.751,94.879,482,114.793,482,135.975s-8.249,41.097-23.228,56.075
			L352.083,298.739c-14.979,14.979-34.893,23.228-56.074,23.228c-21.183,0-41.098-8.249-56.076-23.228l-13.336-13.336
			c-5.857-5.857-15.355-5.857-21.213,0c-5.858,5.857-5.858,15.355,0,21.213l13.336,13.336
			c20.645,20.645,48.093,32.015,77.289,32.015c29.195,0,56.644-11.37,77.287-32.015l106.69-106.689
			C500.631,192.618,512,165.17,512,135.975C512,106.78,500.63,79.332,479.986,58.688z"/>
	</g>
</g>
<g>
</g>
<g>
</g>
<g>
</g>
<g>
</g>
<g>
</g>
<g>
</g>
<g>
</g>
<g>
</g>
<g>
</g>
<g>
</g>
<g>
</g>
<g>
</g>
<g>
</g>
<g>
</g>
<g>
</g>
</svg>
